<mxfile host="Electron" modified="2023-11-19T11:44:24.660Z" agent="Mozilla/5.0 (Windows NT 10.0; Win64; x64) AppleWebKit/537.36 (KHTML, like Gecko) draw.io/22.1.2 Chrome/114.0.5735.289 Electron/25.9.4 Safari/537.36" etag="Xt0G2gRosD-QP_Fm38cr" version="22.1.2" type="device">
  <diagram name="Страница — 1" id="giBoma_6jtx4-uTpA91g">
    <mxGraphModel dx="1434" dy="836" grid="1" gridSize="10" guides="1" tooltips="1" connect="1" arrows="1" fold="1" page="1" pageScale="1" pageWidth="827" pageHeight="1169" math="0" shadow="0">
      <root>
        <mxCell id="0" />
        <mxCell id="1" parent="0" />
        <mxCell id="761nwK9IlX0QgjofI3QI-6" value="" style="rounded=1;whiteSpace=wrap;html=1;align=left;fillColor=none;" vertex="1" parent="1">
          <mxGeometry x="80" y="120" width="520" height="320" as="geometry" />
        </mxCell>
        <mxCell id="NMIPNGBBV71qSW3AP739-1" value="Поисковые запросы к GitHub API" style="rounded=0;whiteSpace=wrap;html=1;fillColor=#dae8fc;strokeColor=#6c8ebf;fontSize=18;" parent="1" vertex="1">
          <mxGeometry x="120" y="150" width="120" height="70" as="geometry" />
        </mxCell>
        <mxCell id="NMIPNGBBV71qSW3AP739-3" value="GitHub" style="rounded=1;whiteSpace=wrap;html=1;fillColor=#d5e8d4;strokeColor=#82b366;fontSize=18;" parent="1" vertex="1">
          <mxGeometry x="280" y="150" width="120" height="70" as="geometry" />
        </mxCell>
        <mxCell id="NMIPNGBBV71qSW3AP739-4" value="" style="endArrow=classic;html=1;rounded=0;exitX=1;exitY=0.5;exitDx=0;exitDy=0;entryX=0;entryY=0.5;entryDx=0;entryDy=0;fontSize=18;" parent="1" source="NMIPNGBBV71qSW3AP739-1" target="NMIPNGBBV71qSW3AP739-3" edge="1">
          <mxGeometry width="50" height="50" relative="1" as="geometry">
            <mxPoint x="390" y="350" as="sourcePoint" />
            <mxPoint x="440" y="300" as="targetPoint" />
          </mxGeometry>
        </mxCell>
        <mxCell id="NMIPNGBBV71qSW3AP739-6" value="Данные репозиториев" style="rounded=0;whiteSpace=wrap;html=1;fillColor=#dae8fc;strokeColor=#6c8ebf;fontSize=18;" parent="1" vertex="1">
          <mxGeometry x="440" y="150" width="120" height="70" as="geometry" />
        </mxCell>
        <mxCell id="NMIPNGBBV71qSW3AP739-7" value="" style="endArrow=classic;html=1;rounded=0;exitX=1;exitY=0.5;exitDx=0;exitDy=0;entryX=0;entryY=0.5;entryDx=0;entryDy=0;fontSize=18;" parent="1" source="NMIPNGBBV71qSW3AP739-3" target="NMIPNGBBV71qSW3AP739-6" edge="1">
          <mxGeometry width="50" height="50" relative="1" as="geometry">
            <mxPoint x="250" y="190" as="sourcePoint" />
            <mxPoint x="290" y="190" as="targetPoint" />
          </mxGeometry>
        </mxCell>
        <mxCell id="NMIPNGBBV71qSW3AP739-8" value="Анализ содержимого репозиториев" style="rounded=1;whiteSpace=wrap;html=1;fillColor=#d5e8d4;strokeColor=#82b366;fontSize=18;" parent="1" vertex="1">
          <mxGeometry x="120" y="250" width="120" height="70" as="geometry" />
        </mxCell>
        <mxCell id="NMIPNGBBV71qSW3AP739-9" value="" style="endArrow=classic;html=1;rounded=0;exitX=0.5;exitY=1;exitDx=0;exitDy=0;entryX=0.5;entryY=0;entryDx=0;entryDy=0;fontSize=18;" parent="1" source="NMIPNGBBV71qSW3AP739-6" target="NMIPNGBBV71qSW3AP739-8" edge="1">
          <mxGeometry width="50" height="50" relative="1" as="geometry">
            <mxPoint x="410" y="190" as="sourcePoint" />
            <mxPoint x="450" y="190" as="targetPoint" />
            <Array as="points">
              <mxPoint x="500" y="230" />
              <mxPoint x="180" y="230" />
            </Array>
          </mxGeometry>
        </mxCell>
        <mxCell id="NMIPNGBBV71qSW3AP739-10" value="Данные о содержимом репозиториев" style="rounded=0;whiteSpace=wrap;html=1;fillColor=#dae8fc;strokeColor=#6c8ebf;fontSize=18;" parent="1" vertex="1">
          <mxGeometry x="280" y="250" width="120" height="70" as="geometry" />
        </mxCell>
        <mxCell id="NMIPNGBBV71qSW3AP739-11" value="" style="endArrow=classic;html=1;rounded=0;exitX=1;exitY=0.5;exitDx=0;exitDy=0;entryX=0;entryY=0.5;entryDx=0;entryDy=0;fontSize=18;" parent="1" source="NMIPNGBBV71qSW3AP739-8" target="NMIPNGBBV71qSW3AP739-10" edge="1">
          <mxGeometry width="50" height="50" relative="1" as="geometry">
            <mxPoint x="570" y="190" as="sourcePoint" />
            <mxPoint x="610" y="190" as="targetPoint" />
          </mxGeometry>
        </mxCell>
        <mxCell id="NMIPNGBBV71qSW3AP739-12" value="Загрузка в бэкап" style="rounded=1;whiteSpace=wrap;html=1;fillColor=#d5e8d4;strokeColor=#82b366;fontSize=18;" parent="1" vertex="1">
          <mxGeometry x="440" y="250" width="120" height="70" as="geometry" />
        </mxCell>
        <mxCell id="NMIPNGBBV71qSW3AP739-13" value="" style="endArrow=classic;html=1;rounded=0;exitX=1;exitY=0.5;exitDx=0;exitDy=0;entryX=0;entryY=0.5;entryDx=0;entryDy=0;fontSize=18;" parent="1" source="NMIPNGBBV71qSW3AP739-10" target="NMIPNGBBV71qSW3AP739-12" edge="1">
          <mxGeometry width="50" height="50" relative="1" as="geometry">
            <mxPoint x="410" y="190" as="sourcePoint" />
            <mxPoint x="450" y="190" as="targetPoint" />
          </mxGeometry>
        </mxCell>
        <mxCell id="NMIPNGBBV71qSW3AP739-14" value="Бэкап" style="rounded=0;whiteSpace=wrap;html=1;fillColor=#dae8fc;strokeColor=#6c8ebf;fontSize=18;" parent="1" vertex="1">
          <mxGeometry x="280" y="360" width="120" height="70" as="geometry" />
        </mxCell>
        <mxCell id="NMIPNGBBV71qSW3AP739-15" value="" style="endArrow=classic;html=1;rounded=0;exitX=0.5;exitY=1;exitDx=0;exitDy=0;entryX=0.5;entryY=0;entryDx=0;entryDy=0;fontSize=18;" parent="1" source="NMIPNGBBV71qSW3AP739-12" target="NMIPNGBBV71qSW3AP739-14" edge="1">
          <mxGeometry width="50" height="50" relative="1" as="geometry">
            <mxPoint x="250" y="290" as="sourcePoint" />
            <mxPoint x="290" y="290" as="targetPoint" />
            <Array as="points">
              <mxPoint x="500" y="340" />
              <mxPoint x="340" y="340" />
            </Array>
          </mxGeometry>
        </mxCell>
        <mxCell id="NMIPNGBBV71qSW3AP739-16" value="Загрузка бэкапа в OpenSearch" style="rounded=1;whiteSpace=wrap;html=1;fillColor=#d5e8d4;strokeColor=#82b366;fontSize=18;" parent="1" vertex="1">
          <mxGeometry x="40" y="470" width="120" height="70" as="geometry" />
        </mxCell>
        <mxCell id="NMIPNGBBV71qSW3AP739-17" value="" style="endArrow=classic;html=1;rounded=0;exitX=0.5;exitY=1;exitDx=0;exitDy=0;entryX=0.5;entryY=0;entryDx=0;entryDy=0;fontSize=18;" parent="1" source="NMIPNGBBV71qSW3AP739-14" target="NMIPNGBBV71qSW3AP739-16" edge="1">
          <mxGeometry width="50" height="50" relative="1" as="geometry">
            <mxPoint x="410" y="290" as="sourcePoint" />
            <mxPoint x="450" y="290" as="targetPoint" />
            <Array as="points">
              <mxPoint x="340" y="450" />
              <mxPoint x="100" y="450" />
            </Array>
          </mxGeometry>
        </mxCell>
        <mxCell id="NMIPNGBBV71qSW3AP739-18" value="Индекс OpenSearch" style="rounded=0;whiteSpace=wrap;html=1;fillColor=#dae8fc;strokeColor=#6c8ebf;fontSize=18;" parent="1" vertex="1">
          <mxGeometry x="200" y="470" width="120" height="70" as="geometry" />
        </mxCell>
        <mxCell id="NMIPNGBBV71qSW3AP739-20" value="" style="endArrow=classic;html=1;rounded=0;entryX=0;entryY=0.5;entryDx=0;entryDy=0;fontSize=18;exitX=1;exitY=0.5;exitDx=0;exitDy=0;" parent="1" source="NMIPNGBBV71qSW3AP739-16" target="NMIPNGBBV71qSW3AP739-18" edge="1">
          <mxGeometry width="50" height="50" relative="1" as="geometry">
            <mxPoint x="100" y="540" as="sourcePoint" />
            <mxPoint x="600" y="280" as="targetPoint" />
          </mxGeometry>
        </mxCell>
        <mxCell id="NMIPNGBBV71qSW3AP739-21" value="Визуализация в OpenSearch Dashboards" style="rounded=1;whiteSpace=wrap;html=1;fillColor=#d5e8d4;strokeColor=#82b366;fontSize=18;" parent="1" vertex="1">
          <mxGeometry x="360" y="470" width="120" height="70" as="geometry" />
        </mxCell>
        <mxCell id="NMIPNGBBV71qSW3AP739-22" value="" style="endArrow=classic;html=1;rounded=0;exitX=1;exitY=0.5;exitDx=0;exitDy=0;entryX=0;entryY=0.5;entryDx=0;entryDy=0;fontSize=18;" parent="1" source="NMIPNGBBV71qSW3AP739-18" target="NMIPNGBBV71qSW3AP739-21" edge="1">
          <mxGeometry width="50" height="50" relative="1" as="geometry">
            <mxPoint x="330" y="280" as="sourcePoint" />
            <mxPoint x="370" y="280" as="targetPoint" />
          </mxGeometry>
        </mxCell>
        <mxCell id="NMIPNGBBV71qSW3AP739-23" value="Графики и диаграммы" style="rounded=0;whiteSpace=wrap;html=1;fillColor=#dae8fc;strokeColor=#6c8ebf;fontSize=18;" parent="1" vertex="1">
          <mxGeometry x="520" y="470" width="120" height="70" as="geometry" />
        </mxCell>
        <mxCell id="NMIPNGBBV71qSW3AP739-24" value="" style="endArrow=classic;html=1;rounded=0;exitX=1;exitY=0.5;exitDx=0;exitDy=0;entryX=0;entryY=0.5;entryDx=0;entryDy=0;fontSize=18;" parent="1" source="NMIPNGBBV71qSW3AP739-21" target="NMIPNGBBV71qSW3AP739-23" edge="1">
          <mxGeometry width="50" height="50" relative="1" as="geometry">
            <mxPoint x="330" y="380" as="sourcePoint" />
            <mxPoint x="370" y="380" as="targetPoint" />
          </mxGeometry>
        </mxCell>
        <mxCell id="761nwK9IlX0QgjofI3QI-7" value="&lt;font style=&quot;font-size: 18px;&quot;&gt;Соединение GitHub - наше решение&lt;/font&gt;" style="text;html=1;strokeColor=none;fillColor=none;align=center;verticalAlign=middle;whiteSpace=wrap;rounded=0;" vertex="1" parent="1">
          <mxGeometry x="75" y="120" width="370" height="30" as="geometry" />
        </mxCell>
      </root>
    </mxGraphModel>
  </diagram>
</mxfile>
